<svg xmlns="http://www.w3.org/2000/svg" viewBox="0 0 241.48 93.15"><defs><style>.cls-1{fill:#2c649d;}.cls-2{fill:#55d3df;}</style></defs><g id="Layer_2" data-name="Layer 2"><g id="Layer_1-2" data-name="Layer 1"><path d="M98.46,32.07v3.3c0,.11-.08.17-.23.17H95.51c-.16,0-.16-.06-.16-.12v-9.7c0-.23.16-.34.47-.34,3.42-.18,9-.58,9.25,2.94.16,2.54-2.64,3.81-6,3.41C98.62,31.67,98.46,31.79,98.46,32.07Zm0-4.73v2.37c0,.11.08.17.24.17h.77c1.25,0,2.26-.58,2.18-1.27h0v-.23c0-.69-1-1.27-2.18-1.27H98.7c-.16.06-.24.17-.24.23Z"/><path d="M114.09,33.46h-4.82a.34.34,0,0,0-.31.17l-.85,1.74a.35.35,0,0,1-.32.17h-2.72c-.15,0-.31-.12-.31-.23v-.06l5.29-9.76a.46.46,0,0,1,.31-.11h2.49a.44.44,0,0,1,.31.11l5.29,9.7c.08.12,0,.23-.16.29h-2.8a.34.34,0,0,1-.31-.17l-.85-1.73C114.33,33.52,114.25,33.46,114.09,33.46Zm-2.17-4.56c-.08-.12-.24-.17-.31-.12s-.16.06-.16.12l-1.17,2.31c-.07.11,0,.23.16.23h2.41a.22.22,0,0,0,.23-.17v-.06Z"/><path d="M119.46,25.32h2.64c.16,0,.24.06.24.17v9.76c0,.12-.08.17-.24.17h-2.64c-.16,0-.23-.05-.23-.17V25.49A.21.21,0,0,1,119.46,25.32Z"/><path d="M133.3,25.32H136a.22.22,0,0,1,.23.17v9.76c0,.12-.16.17-.23.17h-2.73a.44.44,0,0,1-.23-.11l-4.9-5.78c-.08-.11-.23-.11-.39-.05s-.15.11-.15.17l.08,5.54c0,.12-.16.18-.24.18h-2.64a.23.23,0,0,1-.24-.18h0V25.43c0-.11.16-.17.24-.17h2.72a.4.4,0,0,1,.23.12l4.9,5.77a.31.31,0,0,0,.39.06c.08-.06.16-.12.16-.17l-.08-5.55A.22.22,0,0,1,133.3,25.32Z"/><path d="M141.47,29.36h4c.16,0,.24.06.24.17v1.68c0,.11-.08.17-.24.17h-3.88q-.24,0-.24.18v3.69c0,.12-.08.17-.23.17h-2.65c-.15,0-.23-.05-.23-.17h0V25.43c0-.11.08-.17.23-.17h7.47c.16,0,.23.06.23.17v1.68c0,.11-.07.17-.23.17h-4.28c-.15,0-.23.06-.23.18h0v1.67C141.23,29.3,141.31,29.36,141.47,29.36Z"/><path d="M153.21,27.86l2.26-2.43c.07-.05.15-.05.23-.11H159a.22.22,0,0,1,.23.17c0,.06,0,.06-.08.12L155,29.88a.14.14,0,0,0,0,.23l5,5c.07.11.07.23-.08.28s-.08.06-.16.06h-3.42c-.08,0-.15-.06-.23-.06l-2.88-3.11c-.08-.12-.23-.12-.39-.06l-.08.06-2.87,3.11c-.08.06-.16.06-.24.12h-3.26c-.16,0-.24-.06-.24-.17s0-.06.08-.12l4.75-5a.15.15,0,0,0,0-.23l-3.89-4.33c-.08-.12-.08-.24.07-.29s.08-.06.16-.06h3.11a.45.45,0,0,1,.23.11l2.18,2.43c0,.06.16.12.39,0Z"/><path d="M136.72,48.59c-.77-.35-1.63-.69-2.56-1-4.44-1.62-2.49-5.66,2-5.66a10.79,10.79,0,0,1,3.81.69c.31.12.39.29.23.58l-.85,1.21a.54.54,0,0,1-.7.18c-.94-.41-2.49-.81-3.5-.23a.63.63,0,0,0-.16,1.09.73.73,0,0,0,.39.23c2.18.75,5.83,1.79,5.37,4-.78,3.69-7.08,3.23-10.11,1.61-.16-.06-.16-.11-.08-.23l1.4-1.79c.08-.06.08-.06.16,0a6.38,6.38,0,0,0,4.2,1c.62,0,1.08-.52.93-1A.73.73,0,0,0,136.72,48.59Z"/><path d="M153.37,52.46c-3.81-.12-6.77-2.6-6.54-5.49h0c.16-2.89,3.43-5.14,7.24-5h0c3.81.11,6.76,2.6,6.53,5.48s-3.42,5.14-7.23,5Zm.31-2.25a3.38,3.38,0,0,0,3.57-3.06h0a3.33,3.33,0,0,0-3.57-3.07,3.38,3.38,0,0,0-3.58,3.07h0A3.44,3.44,0,0,0,153.68,50.21Z"/><path d="M98.46,48.76v3.29c0,.12-.08.18-.23.18H95.59c-.16,0-.32-.06-.32-.23V42.41c0-.23.16-.35.47-.35,1.63,0,3.27,0,5,.06,6.3.12,5.67,7-1.79,6.35C98.62,48.42,98.46,48.53,98.46,48.76Zm0-4.68v2.37q0,.18.24.18h.77c1.25,0,2.18-.58,2.18-1.27h0v-.24c0-.69-1-1.27-2.18-1.27H98.7a.35.35,0,0,0-.24.23Z"/><path d="M109.58,46.11h3.89a.21.21,0,0,0,.23-.18V42.29c0-.11.16-.17.24-.17h2.56a.23.23,0,0,1,.24.17v9.76c0,.12-.16.18-.24.18h-2.64a.22.22,0,0,1-.23-.18V48.42c0-.12-.16-.18-.24-.18h-3.88a.23.23,0,0,0-.24.18h0v3.69c0,.12-.15.17-.23.17h-2.65a.22.22,0,0,1-.23-.17V42.35c0-.11.16-.17.23-.17H109a.22.22,0,0,1,.23.17v3.7A2.43,2.43,0,0,0,109.58,46.11Z"/><path d="M126.93,42.06h3.18a.23.23,0,0,1,.24.18s0,0-.08.11l-4.74,5.26s-.08,0-.08.11V52c0,.11-.16.17-.24.17h-2.64a.22.22,0,0,1-.23-.17V47.66s0,0-.08-.11l-4.74-5.26c-.08-.11-.08-.23.07-.28s.08-.06.16-.06l3.19.06c.08,0,.15.05.23.05L123.74,45c.07.12.23.12.39.06l.07-.06,2.57-2.89Z"/><path d="M142.63,42.06h2.57c.16,0,.31.12.31.23V52c0,.11-.15.23-.31.23h-2.57c-.15,0-.31-.12-.31-.23V42.29C142.32,42.18,142.48,42.06,142.63,42.06Z"/><path d="M164,44.14h-2.49c-.15,0-.31-.11-.31-.23v-1.5a.35.35,0,0,1,.31-.29h8.94c.16,0,.39.12.39.23h0v1.56c0,.12-.15.23-.39.23H168a.3.3,0,0,0-.31.29v7.62c0,.12-.16.23-.32.23h-2.48c-.16,0-.32-.11-.32-.23h0V44.49A.63.63,0,0,0,164,44.14Z"/><path d="M179.5,45.93V42.24c0-.12.15-.18.23-.18h2.64a.23.23,0,0,1,.24.18V52c0,.11-.16.17-.24.17h-2.64a.22.22,0,0,1-.23-.17V48.3c0-.12-.16-.17-.24-.17h-3.89a.22.22,0,0,0-.23.17h0v3.64c0,.11-.15.17-.23.17h-2.57a.22.22,0,0,1-.23-.17V42.18c0-.12.15-.17.23-.17H175a.22.22,0,0,1,.23.17h0v3.64c0,.11.15.17.23.17h3.89C179.34,46.11,179.5,46.05,179.5,45.93Z"/><path d="M187.89,50.21h4.2c.16,0,.24,0,.24.17h0l-.08,1.67c0,.12-.08.18-.23.18h-7.31q-.24,0-.24-.18h0V42.24q0-.18.24-.18h7.38q.24,0,.24.18h0l-.08,1.67c0,.12-.08.17-.23.17h-4.2q-.24,0-.24.18v1.61q0,.18.24.18h4c.16,0,.23.06.23.17h0V47.9c0,.11-.07.17-.23.17h-4c-.16,0-.24.06-.24.17v1.68c.08.23.24.29.31.29Z"/><path d="M197.23,48.76v3.35c0,.12-.08.17-.24.17h-2.72c-.15,0-.15-.05-.15-.11v-9.7c0-.23.15-.35.46-.35,2.65-.06,7.86-.52,8.71,2,.62,1.73-.15,3-2.18,3.81-.23.12-.31.23-.07.41l3.5,3.12a.34.34,0,0,0,.39.05s.07-.05.07-.11l4.82-8.89a.87.87,0,0,1,.78-.41h2a.76.76,0,0,1,.62.29L218.38,52c.08.11,0,.23-.16.28h-2.8c-.23,0-.38-.05-.46-.23l-.7-1.5a.54.54,0,0,0-.55-.29h-4.43a.52.52,0,0,0-.54.29L208,52a.53.53,0,0,1-.55.28h-5.6a1.12,1.12,0,0,1-.78-.28l-3.42-3.35C197.38,48.36,197.23,48.36,197.23,48.76Zm0-4.68v2.31c0,.12.07.18.23.18h.7c1.09,0,1.94-.52,1.94-1.21h0v-.29c0-.64-.85-1.22-1.94-1.22h-.7C197.3,43.91,197.23,44,197.23,44.08ZM210.06,48c-.08.12,0,.23.15.23h2.41c.16,0,.24,0,.24-.17V48l-1.17-2.25a.37.37,0,0,0-.31-.11c-.08,0-.08,0-.16.11Z"/><path d="M222.11,48.82v3.12c0,.17-.15.29-.39.29h-2.33c-.23,0-.39-.12-.39-.29V42.41c0-.23.16-.35.47-.35,1.79,0,3.5,0,5.21.06,6.14.23,5.21,7.1-2,6.35C222.27,48.42,222.11,48.53,222.11,48.82Zm0-4.74v2.37q0,.18.24.18h.7c1.24,0,2.25-.52,2.25-1.22h0v-.23c0-.69-1-1.27-2.25-1.27h-.7C222.19,43.91,222.11,44,222.11,44.08Z"/><path d="M238.13,42.06h3.11a.23.23,0,0,1,.24.18s0,0-.08.11l-4.75,5.26s-.07,0-.07.11v4.33c0,.12-.16.18-.24.18H233.7a.21.21,0,0,1-.23-.18V47.72c0-.06,0-.06-.08-.11l-4.75-5.26c-.07-.11-.07-.23.08-.29s.08-.05.16-.05h3.19a.44.44,0,0,1,.23.11L234.87,45c.07.11.23.11.38.06l.08-.06,2.57-2.89C238,42.12,238.05,42.06,238.13,42.06Z"/><ellipse cx="70.54" cy="17.87" rx="7.31" ry="5.43"/><ellipse class="cls-1" cx="74.51" cy="31.96" rx="6.14" ry="4.56"/><ellipse class="cls-2" cx="75.6" cy="44.37" rx="4.98" ry="3.7"/><path d="M26.3,62.33a19.28,19.28,0,0,1,2.56-9.53c.08-.11.16-.11.31-.11,0,0,.08,0,.08.06A90.7,90.7,0,0,1,41,63.14c.63.63.39,1.5.31,2.19A55.83,55.83,0,0,0,41,85.89a24,24,0,0,0,2.49,6.75c.31.52.08.64-.54.35a9.28,9.28,0,0,1-.86-.52Q25.64,80.17,26.22,62.68a.19.19,0,0,1,.08-.18Z"/><path d="M60.51,26.53a14.08,14.08,0,0,1,.62,1.79,58.67,58.67,0,0,1,2.42,13c.07,1.68.23,3.41.46,5.2.16,1.56-.46,3-.39,4.5a61.54,61.54,0,0,1-1.79,16.17,65.76,65.76,0,0,1-7.54,19.52c-.39.69-.62.63-.54-.12.62-24.37-24.5-44.06-52.88-54-1.17-.4-1.17-.46.07-.17,8.87,2,20.22,2.54,29.17.17Q47.6,28,48.07,14.18C48.23,10,46.9,5.4,44.18.61L44,.43a.15.15,0,0,1-.16-.17.17.17,0,0,1,.08-.17C44,0,44,0,44,.09c.23.46.85.57,1.24,1A64,64,0,0,1,59.81,24.68C60.05,25.32,60.28,26,60.51,26.53Z"/><ellipse cx="26.22" cy="20.64" rx="13.76" ry="10.22"/></g></g></svg>